<?xml version="1.0" encoding="utf-8"?>
<!-- Generator: Adobe Illustrator 25.2.1, SVG Export Plug-In . SVG Version: 6.00 Build 0)  -->
<svg version="1.1" id="Layer_1" xmlns="http://www.w3.org/2000/svg" xmlns:xlink="http://www.w3.org/1999/xlink" x="0px" y="0px"
	 viewBox="0 0 738.2 105.9" style="enable-background:new 0 0 738.2 105.9;" xml:space="preserve">
<g>
	<g>
		<path d="M579.1,0h-74.9c-12,0-21.6,9.7-21.6,21.6v62.6c0,12,9.7,21.6,21.6,21.6h74.9c12,0,21.6-9.7,21.6-21.6V21.6
			C600.8,9.7,591.1,0,579.1,0 M579.1,16.3c3,0,5.4,2.4,5.4,5.4v62.6c0,3-2.4,5.4-5.4,5.4h-74.9c-3,0-5.4-2.4-5.4-5.4V21.6
			c0-3,2.4-5.4,5.4-5.4H579.1z"/>
		<path d="M327.1,26.4v-4.8c0-12-9.7-21.6-21.6-21.6h-74.9c-12,0-21.6,9.7-21.6,21.6v62.6c0,12,9.7,21.6,21.6,21.6h74.9
			c12,0,21.6-9.7,21.6-21.6l0-15.7c-0.1-3.5,0-7.6,0-10.9c0-4.8-0.8-6.9-2.9-8.9c-3-2.8-6.2-2.1-11.9-2.3l-2.3,0c-1.2,0-2.9,0-4,0
			h-39.4v16.3h39.7c2.5,0,4.5,2,4.5,4.5v16.9c0,3-2.4,5.4-5.4,5.4h-74.9c-3,0-5.4-2.4-5.4-5.4V21.6c0-3,2.4-5.4,5.4-5.4h74.9
			c3,0,5.4,2.4,5.4,5.4v4.8H327.1z"/>
		<path d="M158.2,81.1c0,0.1,0,0.1,0,0.2L73.7,0H57.4v105.9h16.2V22.7l84.6,83.2h16.2V0h-16.2V81.1z"/>
	</g>
	<rect x="0" y="0" width="16.2" height="105.9"/>
	<polygon points="623.6,0 623.6,16.2 672.8,16.2 672.8,105.9 689,105.9 689,16.2 738.2,16.2 738.2,0 	"/>
	<polygon points="361.6,0 361.6,105.9 459.5,105.9 459.5,89.7 377.8,89.7 377.8,0 	"/>
</g>
</svg>
